<svg width="16" height="16" viewBox="0 0 16 16" fill="none" xmlns="http://www.w3.org/2000/svg">
<path d="M1.99991 11.3334H9.99991C10.1698 11.3336 10.3333 11.3986 10.4568 11.5153C10.5804 11.6319 10.6547 11.7913 10.6647 11.961C10.6747 12.1306 10.6195 12.2976 10.5104 12.4279C10.4013 12.5582 10.2466 12.642 10.0779 12.662L9.99991 12.6667H1.99991C1.82999 12.6665 1.66656 12.6015 1.543 12.4848C1.41944 12.3682 1.34509 12.2087 1.33513 12.0391C1.32517 11.8695 1.38036 11.7025 1.48942 11.5722C1.59848 11.4418 1.75318 11.3581 1.92191 11.338L1.99991 11.3334ZM1.99991 7.33337H13.9999C14.1698 7.33356 14.3333 7.39863 14.4568 7.51527C14.5804 7.63192 14.6547 7.79134 14.6647 7.96097C14.6747 8.1306 14.6195 8.29763 14.5104 8.42793C14.4013 8.55823 14.2466 8.64197 14.0779 8.66204L13.9999 8.66671H1.99991C1.82999 8.66652 1.66656 8.60145 1.543 8.48481C1.41944 8.36816 1.34509 8.20874 1.33513 8.03911C1.32517 7.86948 1.38036 7.70245 1.48942 7.57215C1.59848 7.44185 1.75318 7.35811 1.92191 7.33804L1.99991 7.33337ZM1.99991 3.33337H11.9999C12.1698 3.33356 12.3333 3.39863 12.4568 3.51527C12.5804 3.63192 12.6547 3.79134 12.6647 3.96097C12.6747 4.1306 12.6195 4.29763 12.5104 4.42793C12.4013 4.55823 12.2466 4.64197 12.0779 4.66204L11.9999 4.66671H1.99991C1.82999 4.66652 1.66656 4.60145 1.543 4.48481C1.41944 4.36816 1.34509 4.20874 1.33513 4.03911C1.32517 3.86948 1.38036 3.70245 1.48942 3.57215C1.59848 3.44185 1.75318 3.35811 1.92191 3.33804L1.99991 3.33337Z" fill="white"/>
</svg>
