<svg width="16" height="16" viewBox="0 0 16 16" fill="none" xmlns="http://www.w3.org/2000/svg">
<path d="M9.28325 1.6687C9.54461 1.66868 9.80145 1.73695 10.0283 1.86675C10.2552 1.99655 10.4442 2.18337 10.5766 2.4087L11.1193 3.33337H12.4999C12.7844 3.33337 13.0662 3.38941 13.3291 3.4983C13.5919 3.60718 13.8308 3.76678 14.032 3.96797C14.2332 4.16916 14.3928 4.40802 14.5017 4.67089C14.6105 4.93376 14.6666 5.2155 14.6666 5.50003V11.8334C14.6666 12.1179 14.6105 12.3996 14.5017 12.6625C14.3928 12.9254 14.2332 13.1642 14.032 13.3654C13.8308 13.5666 13.5919 13.7262 13.3291 13.8351C13.0662 13.944 12.7844 14 12.4999 14H3.49992C2.92528 14 2.37418 13.7718 1.96785 13.3654C1.56153 12.9591 1.33325 12.408 1.33325 11.8334V5.50003C1.33325 4.9254 1.56153 4.3743 1.96785 3.96797C2.37418 3.56164 2.92528 3.33337 3.49992 3.33337H4.88658L5.46992 2.38403C5.60404 2.16551 5.79194 1.98502 6.01568 1.85979C6.23942 1.73456 6.49152 1.66877 6.74792 1.6687H9.28325ZM7.99992 5.33337C7.20427 5.33337 6.44121 5.64944 5.8786 6.21205C5.31599 6.77466 4.99992 7.53772 4.99992 8.33337C4.99992 9.12902 5.31599 9.89208 5.8786 10.4547C6.44121 11.0173 7.20427 11.3334 7.99992 11.3334C8.79557 11.3334 9.55863 11.0173 10.1212 10.4547C10.6838 9.89208 10.9999 9.12902 10.9999 8.33337C10.9999 7.53772 10.6838 6.77466 10.1212 6.21205C9.55863 5.64944 8.79557 5.33337 7.99992 5.33337ZM7.99992 6.33337C8.26256 6.33337 8.52263 6.3851 8.76529 6.48561C9.00794 6.58612 9.22842 6.73344 9.41413 6.91915C9.59985 7.10487 9.74717 7.32535 9.84768 7.568C9.94819 7.81065 9.99992 8.07072 9.99992 8.33337C9.99992 8.59601 9.94819 8.85608 9.84768 9.09873C9.74717 9.34139 9.59985 9.56186 9.41413 9.74758C9.22842 9.9333 9.00794 10.0806 8.76529 10.1811C8.52263 10.2816 8.26256 10.3334 7.99992 10.3334C7.46949 10.3334 6.96078 10.1227 6.5857 9.74758C6.21063 9.37251 5.99992 8.8638 5.99992 8.33337C5.99992 7.80293 6.21063 7.29423 6.5857 6.91915C6.96078 6.54408 7.46949 6.33337 7.99992 6.33337Z" fill="white"/>
</svg>
