<svg width="16" height="16" viewBox="0 0 16 16" fill="none" xmlns="http://www.w3.org/2000/svg">
<path d="M10.6667 4C10.6667 3.59085 10.7922 3.19155 11.0262 2.85596C11.2603 2.52036 11.5916 2.26462 11.9755 2.12323C12.3595 1.98183 12.7775 1.96159 13.1733 2.06523C13.5691 2.16887 13.9236 2.39141 14.189 2.70282C14.4543 3.01424 14.6178 3.39955 14.6573 3.80678C14.6969 4.21401 14.6106 4.62356 14.41 4.9802C14.2095 5.33684 13.9044 5.62339 13.536 5.80122C13.1675 5.97905 12.7533 6.03958 12.3494 5.97466L10.9907 8.21333C11.2772 8.63533 11.3917 9.15086 11.3106 9.65445C11.2296 10.158 10.9592 10.6117 10.5548 10.9225C10.1504 11.2333 9.64248 11.3779 9.13499 11.3266C8.6275 11.2753 8.15878 11.0321 7.8247 10.6467L5.3307 11.8933C5.35641 12.3789 5.20433 12.8572 4.90291 13.2388C4.6015 13.6204 4.17139 13.8791 3.69305 13.9665C3.21471 14.0539 2.72091 13.9641 2.30401 13.7138C1.88712 13.4635 1.57569 13.0699 1.42799 12.6066C1.28029 12.1433 1.30643 11.642 1.50153 11.1966C1.69662 10.7512 2.04731 10.3922 2.48798 10.1866C2.92865 9.98101 3.42912 9.94303 3.89577 10.0797C4.36242 10.2164 4.76328 10.5185 5.02337 10.9293L7.37737 9.75266C7.29826 9.38424 7.32484 9.00097 7.45404 8.64699C7.58325 8.29302 7.80983 7.98275 8.10768 7.75193C8.40553 7.5211 8.76252 7.37912 9.13754 7.34233C9.51256 7.30555 9.89034 7.37545 10.2274 7.544L11.426 5.56866C11.1891 5.3816 10.9977 5.14325 10.8662 4.87155C10.7347 4.59985 10.6665 4.30186 10.6667 4Z" fill="white"/>
</svg>
