<svg width="18" height="18" viewBox="0 0 18 18" fill="none" xmlns="http://www.w3.org/2000/svg">
<path d="M2.25 1C2.25 0.734784 2.14464 0.48043 1.95711 0.292893C1.76957 0.105357 1.51522 0 1.25 0C0.984784 0 0.73043 0.105357 0.542893 0.292893C0.355357 0.48043 0.25 0.734784 0.25 1V15C0.25 15.663 0.513392 16.2989 0.982233 16.7678C1.45107 17.2366 2.08696 17.5 2.75 17.5H16.75C17.0152 17.5 17.2696 17.3946 17.4571 17.2071C17.6446 17.0196 17.75 16.7652 17.75 16.5C17.75 16.2348 17.6446 15.9804 17.4571 15.7929C17.2696 15.6054 17.0152 15.5 16.75 15.5H2.75C2.61739 15.5 2.49021 15.4473 2.39645 15.3536C2.30268 15.2598 2.25 15.1326 2.25 15V1ZM11 3.75C11 3.48478 11.1054 3.23043 11.2929 3.04289C11.4804 2.85536 11.7348 2.75 12 2.75H16.502C16.7672 2.75 17.0216 2.85536 17.2091 3.04289C17.3966 3.23043 17.502 3.48478 17.502 3.75L17.5 8.25C17.5 8.51522 17.3946 8.76957 17.2071 8.95711C17.0196 9.14464 16.7652 9.25 16.5 9.25C16.2348 9.25 15.9804 9.14464 15.7929 8.95711C15.6054 8.76957 15.5 8.51522 15.5 8.25V6.164L10.957 10.707C10.7695 10.8945 10.5152 10.9998 10.25 10.9998C9.98484 10.9998 9.73053 10.8945 9.543 10.707L7.75 8.914L5.207 11.457C5.0184 11.6392 4.7658 11.74 4.5036 11.7377C4.2414 11.7354 3.99059 11.6302 3.80518 11.4448C3.61977 11.2594 3.5146 11.0086 3.51233 10.7464C3.51005 10.4842 3.61084 10.2316 3.793 10.043L7.043 6.793C7.23053 6.60553 7.48484 6.50021 7.75 6.50021C8.01516 6.50021 8.26947 6.60553 8.457 6.793L10.25 8.586L14.086 4.75H12C11.7348 4.75 11.4804 4.64464 11.2929 4.45711C11.1054 4.26957 11 4.01522 11 3.75Z" fill="#00BDDD"/>
</svg>
