<svg width="16" height="16" viewBox="0 0 16 16" fill="none" xmlns="http://www.w3.org/2000/svg">
<path d="M11.3333 2.66671C11.1565 2.66671 10.987 2.59647 10.8619 2.47145C10.7369 2.34642 10.6667 2.17685 10.6667 2.00004C10.6667 1.82323 10.7369 1.65366 10.8619 1.52864C10.987 1.40361 11.1565 1.33337 11.3333 1.33337H14C14.1768 1.33337 14.3464 1.40361 14.4714 1.52864C14.5964 1.65366 14.6667 1.82323 14.6667 2.00004V4.66671C14.6667 4.84352 14.5964 5.01309 14.4714 5.13811C14.3464 5.26314 14.1768 5.33337 14 5.33337C13.8232 5.33337 13.6536 5.26314 13.5286 5.13811C13.4036 5.01309 13.3333 4.84352 13.3333 4.66671V3.60937L9.47133 7.47137C9.34631 7.59635 9.17678 7.66656 9 7.66656C8.82322 7.66656 8.65369 7.59635 8.52867 7.47137L6.66667 5.60937L3.138 9.13804C3.01227 9.25948 2.84386 9.32667 2.66907 9.32516C2.49427 9.32364 2.32706 9.25352 2.20345 9.12992C2.07985 9.00631 2.00974 8.83911 2.00822 8.66431C2.0067 8.48951 2.07389 8.32111 2.19533 8.19537L6.19533 4.19537C6.32035 4.07039 6.48989 4.00018 6.66667 4.00018C6.84344 4.00018 7.01298 4.07039 7.138 4.19537L9 6.05737L12.3907 2.66671H11.3333ZM3.33333 12V14C3.33333 14.1769 3.2631 14.3464 3.13807 14.4714C3.01305 14.5965 2.84348 14.6667 2.66667 14.6667C2.48986 14.6667 2.32029 14.5965 2.19526 14.4714C2.07024 14.3464 2 14.1769 2 14V12C2 11.8232 2.07024 11.6537 2.19526 11.5286C2.32029 11.4036 2.48986 11.3334 2.66667 11.3334C2.84348 11.3334 3.01305 11.4036 3.13807 11.5286C3.2631 11.6537 3.33333 11.8232 3.33333 12ZM6.66667 9.33337C6.66667 9.15656 6.59643 8.98699 6.4714 8.86197C6.34638 8.73695 6.17681 8.66671 6 8.66671C5.82319 8.66671 5.65362 8.73695 5.5286 8.86197C5.40357 8.98699 5.33333 9.15656 5.33333 9.33337V14C5.33333 14.1769 5.40357 14.3464 5.5286 14.4714C5.65362 14.5965 5.82319 14.6667 6 14.6667C6.17681 14.6667 6.34638 14.5965 6.4714 14.4714C6.59643 14.3464 6.66667 14.1769 6.66667 14V9.33337ZM9.33333 10C9.51014 10 9.67971 10.0703 9.80474 10.1953C9.92976 10.3203 10 10.4899 10 10.6667V14C10 14.1769 9.92976 14.3464 9.80474 14.4714C9.67971 14.5965 9.51014 14.6667 9.33333 14.6667C9.15652 14.6667 8.98695 14.5965 8.86193 14.4714C8.73691 14.3464 8.66667 14.1769 8.66667 14V10.6667C8.66667 10.4899 8.73691 10.3203 8.86193 10.1953C8.98695 10.0703 9.15652 10 9.33333 10ZM13.3333 7.33337C13.3333 7.15656 13.2631 6.98699 13.1381 6.86197C13.013 6.73695 12.8435 6.66671 12.6667 6.66671C12.4899 6.66671 12.3203 6.73695 12.1953 6.86197C12.0702 6.98699 12 7.15656 12 7.33337V14C12 14.1769 12.0702 14.3464 12.1953 14.4714C12.3203 14.5965 12.4899 14.6667 12.6667 14.6667C12.8435 14.6667 13.013 14.5965 13.1381 14.4714C13.2631 14.3464 13.3333 14.1769 13.3333 14V7.33337Z" fill="white"/>
</svg>
