<svg width="24" height="24" viewBox="0 0 24 24" fill="none" xmlns="http://www.w3.org/2000/svg">
<path d="M8.90386 16.5H15.0959C14.4759 19.773 13.2339 22 11.9999 22C10.8029 22 9.59986 19.906 8.96186 16.796L8.90386 16.502V16.5ZM3.06586 16.501H7.36986C7.73486 18.583 8.35286 20.355 9.16286 21.594C6.62039 20.8394 4.48031 19.1085 3.21086 16.78L3.06586 16.501ZM16.6289 16.501H20.9339C20.3181 17.7204 19.4596 18.8012 18.4112 19.677C17.3628 20.5528 16.1464 21.2051 14.8369 21.594C15.5919 20.436 16.1809 18.816 16.5519 16.913L16.6289 16.501ZM16.9309 10.001H21.8009C22.1381 11.6626 22.0497 13.3826 21.5439 15.001H16.8399C16.9935 13.5584 17.037 12.1062 16.9699 10.657L16.9299 9.99995L16.9309 10.001ZM2.19786 9.99995H7.06786C6.96358 11.4719 6.97495 12.9498 7.10186 14.42L7.15886 15H2.45586C1.94932 13.3818 1.86056 11.6617 2.19786 9.99995ZM8.57486 9.99995H15.4249C15.5391 11.4733 15.5267 12.9537 15.3879 14.425L15.3259 15H8.67386C8.49903 13.5026 8.45487 11.9929 8.54186 10.488L8.57486 9.99995ZM14.9449 2.57595L14.8359 2.40595C16.3223 2.8472 17.6862 3.62718 18.8203 4.68458C19.9544 5.74197 20.8278 7.04798 21.3719 8.49995H16.7799C16.4639 6.08395 15.8239 4.00795 14.9429 2.57695L14.9449 2.57595ZM9.04186 2.44295L9.16386 2.40595C8.28286 3.75695 7.62786 5.73595 7.27986 8.05995L7.21886 8.49995H2.62786C3.16445 7.06817 4.02134 5.77805 5.13302 4.72825C6.2447 3.67844 7.58173 2.89675 9.04186 2.44295ZM11.9999 2.00195C13.3189 2.00195 14.6459 4.54395 15.2139 8.18495L15.2609 8.49995H8.73886C9.27986 4.69095 10.6429 2.00195 11.9999 2.00195Z" fill="#999999"/>
</svg>
