<svg width="16" height="16" viewBox="0 0 16 16" fill="none" xmlns="http://www.w3.org/2000/svg">
<path d="M9.29344 3.3333L12.6674 6.70664L12.0261 7.34797C11.3987 7.29583 10.7674 7.38103 10.1763 7.59765C9.58513 7.81427 9.04828 8.1571 8.60309 8.60228C8.1579 9.04747 7.81507 9.58432 7.59845 10.1755C7.38183 10.7666 7.29663 11.3979 7.34877 12.0253L6.04211 13.332C5.85735 13.5167 5.62755 13.65 5.37544 13.7186L1.96544 14.6486C1.8805 14.6716 1.791 14.6718 1.70597 14.6492C1.62093 14.6265 1.54339 14.5818 1.48116 14.5196C1.41894 14.4574 1.37424 14.3798 1.35158 14.2948C1.32892 14.2097 1.3291 14.1202 1.35211 14.0353L2.28144 10.6246C2.35007 10.3725 2.48336 10.1427 2.66811 9.95797L9.29344 3.3333ZM14.0208 1.97997C14.4679 2.42739 14.7191 3.03407 14.7191 3.66664C14.7191 4.2992 14.4679 4.90588 14.0208 5.3533L13.3741 5.99997L10.0001 2.62664L10.6468 1.97997C10.8683 1.75838 11.1313 1.58259 11.4207 1.46266C11.7102 1.34273 12.0205 1.28101 12.3338 1.28101C12.6471 1.28101 12.9573 1.34273 13.2468 1.46266C13.5363 1.58259 13.7993 1.75838 14.0208 1.97997ZM9.52011 9.31597C9.56996 9.48837 9.58449 9.66907 9.56283 9.84722C9.54117 10.0254 9.48378 10.1973 9.39407 10.3528C9.30437 10.5082 9.18421 10.6439 9.04079 10.7518C8.89738 10.8597 8.73366 10.9375 8.55944 10.9806L8.17011 11.0766C8.10771 11.4759 8.10906 11.8825 8.17411 12.2813L8.53411 12.368C8.70983 12.4103 8.87511 12.4879 9.0199 12.5961C9.1647 12.7043 9.28599 12.8408 9.3764 12.9973C9.46682 13.1538 9.52446 13.327 9.54585 13.5065C9.56723 13.686 9.55189 13.8679 9.50078 14.0413L9.37611 14.4626C9.66944 14.72 10.0028 14.9286 10.3654 15.0766L10.6948 14.7313C10.8193 14.6003 10.9692 14.496 11.1353 14.4247C11.3015 14.3534 11.4803 14.3167 11.6611 14.3167C11.8419 14.3167 12.0208 14.3534 12.1869 14.4247C12.353 14.496 12.5029 14.6003 12.6274 14.7313L12.9594 15.0813C13.3204 14.9345 13.6545 14.7288 13.9481 14.4726L13.8161 14.0153C13.7664 13.8429 13.7519 13.6622 13.7737 13.4841C13.7954 13.306 13.8529 13.1341 13.9427 12.9787C14.0324 12.8234 14.1526 12.6877 14.2961 12.5799C14.4395 12.4721 14.6032 12.3943 14.7774 12.3513L15.1661 12.2553C15.2286 11.8558 15.2272 11.449 15.1621 11.05L14.8021 10.9633C14.6264 10.921 14.4611 10.8434 14.3163 10.7352C14.1715 10.627 14.0502 10.4905 13.9598 10.334C13.8694 10.1775 13.8118 10.0042 13.7904 9.82476C13.769 9.64529 13.7843 9.46334 13.8354 9.28997L13.9601 8.86997C13.6668 8.61133 13.3324 8.40337 12.9708 8.25463L12.6421 8.60064C12.5175 8.73175 12.3676 8.83616 12.2014 8.9075C12.0353 8.97885 11.8563 9.01564 11.6754 9.01564C11.4946 9.01564 11.3156 8.97885 11.1495 8.9075C10.9833 8.83616 10.8333 8.73175 10.7088 8.60064L10.3768 8.25064C10.0141 8.3973 9.68077 8.60397 9.38811 8.85863L9.52011 9.31597ZM11.6674 12.6666C11.1341 12.6666 10.7008 12.2186 10.7008 11.6666C10.7008 11.114 11.1341 10.6666 11.6674 10.6666C12.2008 10.6666 12.6341 11.114 12.6341 11.6666C12.6341 12.2186 12.2008 12.6666 11.6674 12.6666Z" fill="white"/>
</svg>
