<svg width="24" height="24" viewBox="0 0 24 24" fill="none" xmlns="http://www.w3.org/2000/svg">
<path d="M12.0001 9.005C13.061 9.005 14.0784 9.42643 14.8285 10.1766C15.5787 10.9267 16.0001 11.9441 16.0001 13.005C16.0001 14.0659 15.5787 15.0833 14.8285 15.8334C14.0784 16.5836 13.061 17.005 12.0001 17.005C10.9392 17.005 9.9218 16.5836 9.17166 15.8334C8.42151 15.0833 8.00008 14.0659 8.00008 13.005C8.00008 11.9441 8.42151 10.9267 9.17166 10.1766C9.9218 9.42643 10.9392 9.005 12.0001 9.005ZM12.0001 5.5C16.6131 5.5 20.5961 8.65 21.7011 13.064C21.7495 13.2569 21.7193 13.4612 21.6171 13.6319C21.5148 13.8025 21.349 13.9256 21.1561 13.974C20.9631 14.0224 20.7589 13.9922 20.5882 13.89C20.4176 13.7878 20.2945 13.6219 20.2461 13.429C19.7838 11.5918 18.7213 9.9616 17.2271 8.79704C15.7328 7.63248 13.8925 7.00028 11.998 7.00074C10.1036 7.0012 8.26353 7.6343 6.76986 8.79958C5.27619 9.96486 4.21444 11.5956 3.75308 13.433C3.70127 13.6219 3.5776 13.7831 3.4085 13.882C3.23941 13.9809 3.03832 14.0098 2.84824 13.9623C2.65816 13.9149 2.49418 13.795 2.39137 13.6283C2.28856 13.4615 2.25508 13.2611 2.29808 13.07C2.84036 10.9075 4.08954 8.98806 5.84729 7.61657C7.60504 6.24509 9.77059 5.50013 12.0001 5.5Z" fill="#999999"/>
</svg>
