<svg width="16" height="16" viewBox="0 0 16 16" fill="none" xmlns="http://www.w3.org/2000/svg">
<path d="M11.6668 6.66667C11.6667 5.53861 11.2852 4.44372 10.5842 3.55989C9.88326 2.67606 8.90402 2.05524 7.80561 1.7983C6.7072 1.54136 5.55418 1.66341 4.53391 2.1446C3.51363 2.6258 2.68605 3.43787 2.18564 4.44886C1.68523 5.45985 1.54139 6.61035 1.77751 7.71342C2.01362 8.81649 2.61581 9.80731 3.48622 10.5249C4.35663 11.2424 5.44411 11.6446 6.57197 11.666C7.69982 11.6874 8.80177 11.3267 9.69875 10.6427L12.8621 13.8047L12.9248 13.86C13.0587 13.9636 13.2272 14.0123 13.3958 13.9963C13.5644 13.9802 13.7206 13.9006 13.8326 13.7735C13.9446 13.6465 14.0041 13.4816 13.9989 13.3123C13.9937 13.143 13.9243 12.982 13.8048 12.862L10.6428 9.69867C11.3085 8.82824 11.6684 7.76249 11.6668 6.66667ZM9.00009 6.00001C9.1769 6.00001 9.34647 6.07024 9.47149 6.19527C9.59652 6.32029 9.66675 6.48986 9.66675 6.66667C9.66675 6.84348 9.59652 7.01305 9.47149 7.13808C9.34647 7.2631 9.1769 7.33334 9.00009 7.33334H4.33342C4.15661 7.33334 3.98704 7.2631 3.86202 7.13808C3.73699 7.01305 3.66675 6.84348 3.66675 6.66667C3.66675 6.48986 3.73699 6.32029 3.86202 6.19527C3.98704 6.07024 4.15661 6.00001 4.33342 6.00001H9.00009Z" fill="white"/>
</svg>
