<svg width="16" height="16" viewBox="0 0 16 16" fill="none" xmlns="http://www.w3.org/2000/svg">
<path d="M9.29333 3.33333L12.6667 6.70667L6.04133 13.3333C5.85676 13.518 5.62719 13.6513 5.37533 13.72L1.96466 14.65C1.87965 14.6731 1.79006 14.6733 1.70496 14.6506C1.61985 14.6279 1.54224 14.5831 1.47999 14.5208C1.41775 14.4585 1.37306 14.3808 1.35047 14.2957C1.32788 14.2106 1.32817 14.121 1.35133 14.036L2.28133 10.6253C2.35006 10.3735 2.48334 10.1439 2.66799 9.95934L9.29199 3.33333H9.29333ZM14.02 1.98C14.4673 2.42734 14.7186 3.03405 14.7186 3.66667C14.7186 4.29929 14.4673 4.906 14.02 5.35333L13.3733 6L9.99999 2.62667L10.6467 1.98C11.094 1.53268 11.7007 1.28137 12.3333 1.28137C12.9659 1.28137 13.5727 1.53268 14.02 1.98Z" fill="white"/>
</svg>
