<svg width="24" height="25" viewBox="0 0 24 25" fill="none" xmlns="http://www.w3.org/2000/svg">
<path d="M14.754 10.5C15.72 10.5 16.504 11.284 16.504 12.25V16.999C16.504 18.1927 16.0298 19.3376 15.1857 20.1817C14.3416 21.0258 13.1967 21.5 12.003 21.5C10.8093 21.5 9.66441 21.0258 8.82031 20.1817C7.97621 19.3376 7.502 18.1927 7.502 16.999V12.25C7.502 11.284 8.285 10.5 9.252 10.5H14.754ZM7.131 10.5C6.781 10.922 6.556 11.45 6.511 12.03L6.501 12.25V16.999C6.501 17.846 6.693 18.648 7.035 19.364C6.44228 19.5226 5.82103 19.5427 5.21929 19.4228C4.61756 19.3029 4.05145 19.0463 3.56475 18.6727C3.07805 18.2991 2.68379 17.8185 2.41246 17.2682C2.14114 16.7179 2.00001 16.1126 2 15.499V12.25C2.00002 11.8108 2.16517 11.3877 2.46268 11.0646C2.76019 10.7415 3.1683 10.5421 3.606 10.506L3.75 10.5H7.131ZM16.875 10.5H20.25C21.216 10.5 22 11.284 22 12.25V15.5C22.0001 16.1132 21.8593 16.7182 21.5884 17.2682C21.3175 17.8183 20.9237 18.2987 20.4376 18.6724C19.9514 19.046 19.3858 19.3029 18.7846 19.4232C18.1833 19.5435 17.5625 19.5239 16.97 19.366C17.27 18.738 17.454 18.046 17.495 17.314L17.504 16.999V12.25C17.504 11.585 17.269 10.975 16.875 10.5ZM12 3.5C12.7956 3.5 13.5587 3.81607 14.1213 4.37868C14.6839 4.94129 15 5.70435 15 6.5C15 7.29565 14.6839 8.05871 14.1213 8.62132C13.5587 9.18393 12.7956 9.5 12 9.5C11.2044 9.5 10.4413 9.18393 9.87868 8.62132C9.31607 8.05871 9 7.29565 9 6.5C9 5.70435 9.31607 4.94129 9.87868 4.37868C10.4413 3.81607 11.2044 3.5 12 3.5ZM18.5 4.5C19.163 4.5 19.7989 4.76339 20.2678 5.23223C20.7366 5.70107 21 6.33696 21 7C21 7.66304 20.7366 8.29893 20.2678 8.76777C19.7989 9.23661 19.163 9.5 18.5 9.5C17.837 9.5 17.2011 9.23661 16.7322 8.76777C16.2634 8.29893 16 7.66304 16 7C16 6.33696 16.2634 5.70107 16.7322 5.23223C17.2011 4.76339 17.837 4.5 18.5 4.5ZM5.5 4.5C6.16304 4.5 6.79893 4.76339 7.26777 5.23223C7.73661 5.70107 8 6.33696 8 7C8 7.66304 7.73661 8.29893 7.26777 8.76777C6.79893 9.23661 6.16304 9.5 5.5 9.5C4.83696 9.5 4.20107 9.23661 3.73223 8.76777C3.26339 8.29893 3 7.66304 3 7C3 6.33696 3.26339 5.70107 3.73223 5.23223C4.20107 4.76339 4.83696 4.5 5.5 4.5Z" fill="#999999"/>
</svg>
