<svg width="16" height="16" viewBox="0 0 16 16" fill="none" xmlns="http://www.w3.org/2000/svg">
<path d="M11.6668 6.66667C11.6668 7.80667 11.2854 8.85801 10.6428 9.69867L13.8048 12.862C13.9243 12.982 13.9937 13.143 13.9989 13.3123C14.0041 13.4816 13.9446 13.6465 13.8326 13.7735C13.7206 13.9006 13.5644 13.9802 13.3958 13.9963C13.2272 14.0123 13.0587 13.9636 12.9248 13.86L12.8621 13.8047L9.69875 10.6427C8.80177 11.3267 7.69982 11.6874 6.57197 11.666C5.44411 11.6446 4.35663 11.2424 3.48622 10.5249C2.61581 9.80731 2.01362 8.81649 1.77751 7.71342C1.54139 6.61035 1.68523 5.45985 2.18564 4.44886C2.68605 3.43787 3.51363 2.6258 4.53391 2.1446C5.55418 1.66341 6.7072 1.54136 7.80561 1.7983C8.90402 2.05524 9.88326 2.67606 10.5842 3.55989C11.2852 4.44372 11.6667 5.53861 11.6668 6.66667ZM6.66675 3.66667C6.48994 3.66667 6.32037 3.73691 6.19535 3.86194C6.07033 3.98696 6.00009 4.15653 6.00009 4.33334V6.00001H4.33342C4.15661 6.00001 3.98704 6.07024 3.86202 6.19527C3.73699 6.32029 3.66675 6.48986 3.66675 6.66667C3.66675 6.84348 3.73699 7.01305 3.86202 7.13808C3.98704 7.2631 4.15661 7.33334 4.33342 7.33334H6.00009V9.00001C6.00009 9.17682 6.07033 9.34639 6.19535 9.47141C6.32037 9.59644 6.48994 9.66667 6.66675 9.66667C6.84356 9.66667 7.01313 9.59644 7.13816 9.47141C7.26318 9.34639 7.33342 9.17682 7.33342 9.00001V7.33334H9.00009C9.1769 7.33334 9.34647 7.2631 9.47149 7.13808C9.59652 7.01305 9.66675 6.84348 9.66675 6.66667C9.66675 6.48986 9.59652 6.32029 9.47149 6.19527C9.34647 6.07024 9.1769 6.00001 9.00009 6.00001H7.33342V4.33334C7.33342 4.15653 7.26318 3.98696 7.13816 3.86194C7.01313 3.73691 6.84356 3.66667 6.66675 3.66667Z" fill="white"/>
</svg>
