<svg width="17" height="16" viewBox="0 0 17 16" fill="none" xmlns="http://www.w3.org/2000/svg">
<path d="M6.02872 13.1381C5.90374 13.013 5.83353 12.8435 5.83353 12.6667C5.83353 12.49 5.90374 12.3204 6.02872 12.1954L10.2241 8.00006L6.02872 3.80473C5.96505 3.74323 5.91426 3.66967 5.87932 3.58833C5.84438 3.50699 5.82599 3.41951 5.82522 3.33099C5.82445 3.24248 5.84132 3.15469 5.87484 3.07276C5.90836 2.99083 5.95786 2.91639 6.02046 2.8538C6.08305 2.7912 6.15749 2.7417 6.23942 2.70818C6.32135 2.67466 6.40914 2.65779 6.49765 2.65856C6.58617 2.65933 6.67365 2.67772 6.75499 2.71266C6.83633 2.7476 6.90989 2.79839 6.97139 2.86206L11.6381 7.52873C11.763 7.65375 11.8332 7.82328 11.8332 8.00006C11.8332 8.17684 11.763 8.34638 11.6381 8.47139L6.97139 13.1381C6.84637 13.263 6.67683 13.3333 6.50005 13.3333C6.32328 13.3333 6.15374 13.263 6.02872 13.1381Z" fill="white"/>
</svg>
