<svg width="16" height="16" viewBox="0 0 16 16" fill="none" xmlns="http://www.w3.org/2000/svg">
<path d="M6.66673 1.66669C7.59871 1.66665 8.51216 1.9271 9.30398 2.41864C10.0958 2.91017 10.7345 3.61324 11.148 4.44849C11.5614 5.28374 11.7332 6.21793 11.6439 7.14563C11.5547 8.07333 11.2079 8.95761 10.6427 9.69869L13.8047 12.862C13.9243 12.982 13.9937 13.143 13.9989 13.3123C14.0041 13.4816 13.9446 13.6465 13.8326 13.7735C13.7205 13.9006 13.5644 13.9802 13.3957 13.9963C13.2271 14.0123 13.0587 13.9636 12.9247 13.86L12.8621 13.8047L9.69873 10.6427C9.0674 11.1241 8.3305 11.4482 7.54902 11.5883C6.76754 11.7283 5.96395 11.6803 5.20473 11.4481C4.44551 11.2159 3.7525 10.8063 3.18303 10.2531C2.61357 9.69985 2.18402 9.01899 1.92995 8.26681C1.67587 7.51464 1.60456 6.71277 1.72193 5.92756C1.83929 5.14235 2.14195 4.39638 2.60486 3.75137C3.06777 3.10636 3.67762 2.58086 4.38396 2.21834C5.09029 1.85583 5.8728 1.66673 6.66673 1.66669ZM6.66673 3.00002C5.69427 3.00002 4.76164 3.38633 4.074 4.07396C3.38637 4.7616 3.00006 5.69423 3.00006 6.66669C3.00006 7.63915 3.38637 8.57178 4.074 9.25941C4.76164 9.94705 5.69427 10.3334 6.66673 10.3334C7.63919 10.3334 8.57182 9.94705 9.25945 9.25941C9.94709 8.57178 10.3334 7.63915 10.3334 6.66669C10.3334 5.69423 9.94709 4.7616 9.25945 4.07396C8.57182 3.38633 7.63919 3.00002 6.66673 3.00002Z" fill="white"/>
</svg>
