<svg width="16" height="16" viewBox="0 0 16 16" fill="none" xmlns="http://www.w3.org/2000/svg">
<path d="M3.16675 3.33329C3.16675 3.15648 3.23699 2.98691 3.36201 2.86189C3.48703 2.73686 3.6566 2.66663 3.83341 2.66663H12.1667C12.3436 2.66663 12.5131 2.73686 12.6382 2.86189C12.7632 2.98691 12.8334 3.15648 12.8334 3.33329V4.66663C12.8334 4.84344 12.7632 5.01301 12.6382 5.13803C12.5131 5.26305 12.3436 5.33329 12.1667 5.33329C11.9899 5.33329 11.8204 5.26305 11.6953 5.13803C11.5703 5.01301 11.5001 4.84344 11.5001 4.66663V3.99996H8.66675V12H9.33342C9.51023 12 9.6798 12.0702 9.80482 12.1952C9.92984 12.3202 10.0001 12.4898 10.0001 12.6666C10.0001 12.8434 9.92984 13.013 9.80482 13.138C9.6798 13.2631 9.51023 13.3333 9.33342 13.3333H6.66675C6.48994 13.3333 6.32037 13.2631 6.19534 13.138C6.07032 13.013 6.00008 12.8434 6.00008 12.6666C6.00008 12.4898 6.07032 12.3202 6.19534 12.1952C6.32037 12.0702 6.48994 12 6.66675 12H7.33342V3.99996H4.50008V4.66663C4.50008 4.84344 4.42984 5.01301 4.30482 5.13803C4.17979 5.26305 4.01023 5.33329 3.83341 5.33329C3.6566 5.33329 3.48703 5.26305 3.36201 5.13803C3.23699 5.01301 3.16675 4.84344 3.16675 4.66663V3.33329Z" fill="white"/>
</svg>
