<svg width="24" height="25" viewBox="0 0 24 25" fill="none" xmlns="http://www.w3.org/2000/svg">
<path d="M19.25 6.545V6.25C19.25 5.52065 18.9603 4.82118 18.4445 4.30546C17.9288 3.78973 17.2293 3.5 16.5 3.5H5.25C4.94116 3.50005 4.63564 3.56368 4.35246 3.68693C4.06928 3.81018 3.81451 3.99041 3.604 4.21639C3.3935 4.44238 3.23177 4.70928 3.12889 5.00047C3.02601 5.29167 2.98418 5.60093 3.006 5.909C3.00217 5.93919 3.00017 5.96957 3 6V18.25C3 19.112 3.34241 19.9386 3.9519 20.5481C4.5614 21.1576 5.38805 21.5 6.25 21.5H18.75C19.4793 21.5 20.1788 21.2103 20.6945 20.6945C21.2103 20.1788 21.5 19.4793 21.5 18.75V9.25C21.5002 8.60725 21.2752 7.98473 20.8642 7.49058C20.4532 6.99643 19.882 6.66186 19.25 6.545ZM5.25 5H16.5C17.19 5 17.75 5.56 17.75 6.25V6.5H5.25C5.05109 6.5 4.86032 6.42098 4.71967 6.28033C4.57902 6.13968 4.5 5.94891 4.5 5.75C4.5 5.55109 4.57902 5.36032 4.71967 5.21967C4.86032 5.07902 5.05109 5 5.25 5ZM16.25 13.5H18.25C18.4489 13.5 18.6397 13.579 18.7803 13.7197C18.921 13.8603 19 14.0511 19 14.25C19 14.4489 18.921 14.6397 18.7803 14.7803C18.6397 14.921 18.4489 15 18.25 15H16.25C16.0511 15 15.8603 14.921 15.7197 14.7803C15.579 14.6397 15.5 14.4489 15.5 14.25C15.5 14.0511 15.579 13.8603 15.7197 13.7197C15.8603 13.579 16.0511 13.5 16.25 13.5Z" fill="#999999"/>
</svg>
