<svg width="32" height="32" viewBox="0 0 32 32" fill="none" xmlns="http://www.w3.org/2000/svg">
<path fill-rule="evenodd" clip-rule="evenodd" d="M32 16C32 24.8367 24.8367 32 16 32C7.16345 32 0 24.8367 0 16C0 7.16345 7.16345 0 16 0C24.8367 0 32 7.16345 32 16ZM26.9716 16C26.9716 22.0593 22.0596 26.9713 16.0003 26.9713C15.5802 26.9713 15.1655 26.9478 14.7577 26.902C20.2717 26.3225 24.5691 21.6587 24.5691 15.9909C24.5691 10.3518 20.3144 5.70623 14.8402 5.08919C15.2214 5.04913 15.6085 5.02858 16.0003 5.02858C22.0596 5.02858 26.9716 9.94067 26.9716 16ZM12.4571 23.728C16.0731 23.0893 18.8235 19.8723 18.8235 16C18.8235 12.1276 16.0731 8.91062 12.4571 8.27206C12.8947 8.19633 13.3447 8.15686 13.8039 8.15686C18.1355 8.15686 21.6471 11.6684 21.6471 16C21.6471 20.3316 18.1355 23.8431 13.8039 23.8431C13.3447 23.8431 12.8947 23.8036 12.4571 23.728Z" fill="white"/>
</svg>
