<svg>
  <symbol id="icon-eye" xmlns="http://www.w3.org/2000/svg" fill="none" viewBox="0 0 24 24"><path fill="currentColor" d="M12 9.005a4 4 0 1 1 0 8 4 4 0 0 1 0-8ZM12 5.5c4.613 0 8.596 3.15 9.701 7.564a.75.75 0 0 1-1.455.365 8.503 8.503 0 0 0-16.493.004.75.75 0 0 1-1.455-.363A10.003 10.003 0 0 1 12 5.5Z"/></symbol>
  <symbol id="icon-earth" xmlns="http://www.w3.org/2000/svg" fill="none" viewBox="0 0 24 24"><path fill="currentColor" d="M8.904 16.5h6.192C14.476 19.773 13.234 22 12 22c-1.197 0-2.4-2.094-3.038-5.204l-.058-.294V16.5Zm-5.838.001H7.37c.365 2.082.983 3.854 1.793 5.093A10.03 10.03 0 0 1 3.21 16.78l-.145-.279Zm13.563 0h4.305a10.03 10.03 0 0 1-6.097 5.093c.755-1.158 1.344-2.778 1.715-4.681l.077-.412Zm.302-6.5h4.87a10.057 10.057 0 0 1-.257 5H16.84c.154-1.443.197-2.895.13-4.344L16.93 10V10ZM2.198 10h4.87a28.213 28.213 0 0 0 .034 4.42l.057.58H2.456a10.047 10.047 0 0 1-.258-5Zm6.377 0h6.85a25.847 25.847 0 0 1-.037 4.425l-.062.575H8.674a25.98 25.98 0 0 1-.132-4.512L8.575 10Zm6.37-7.424-.11-.17A10.027 10.027 0 0 1 21.373 8.5H16.78c-.316-2.416-.956-4.492-1.837-5.923l.002-.001Zm-5.903-.133.122-.037c-.881 1.35-1.536 3.33-1.884 5.654l-.061.44H2.628a10.028 10.028 0 0 1 6.414-6.057ZM12 2.002c1.319 0 2.646 2.542 3.214 6.183l.047.315H8.739c.54-3.809 1.904-6.498 3.26-6.498Z"/></symbol>
  <symbol id="icon-chart" xmlns="http://www.w3.org/2000/svg" fill="none" viewBox="0 0 18 18"><path fill="currentColor" d="M2.25 1a1 1 0 0 0-2 0v14a2.5 2.5 0 0 0 2.5 2.5h14a1 1 0 0 0 0-2h-14a.5.5 0 0 1-.5-.5V1ZM11 3.75a1 1 0 0 1 1-1h4.502a1 1 0 0 1 1 1l-.002 4.5a1 1 0 0 1-2 0V6.164l-4.543 4.543a1 1 0 0 1-1.414 0L7.75 8.914l-2.543 2.543a1 1 0 0 1-1.414-1.414l3.25-3.25a1 1 0 0 1 1.414 0l1.793 1.793 3.836-3.836H12a1 1 0 0 1-1-1Z"/></symbol>
  <symbol id="icon-wallet" xmlns="http://www.w3.org/2000/svg" fill="none" viewBox="0 0 24 25"><path fill="currentColor" d="M19.25 6.545V6.25A2.75 2.75 0 0 0 16.5 3.5H5.25a2.25 2.25 0 0 0-2.244 2.409A.757.757 0 0 0 3 6v12.25a3.25 3.25 0 0 0 3.25 3.25h12.5a2.75 2.75 0 0 0 2.75-2.75v-9.5a2.75 2.75 0 0 0-2.25-2.705ZM5.25 5H16.5c.69 0 1.25.56 1.25 1.25v.25H5.25a.75.75 0 0 1 0-1.5Zm11 8.5h2a.75.75 0 1 1 0 1.5h-2a.75.75 0 1 1 0-1.5Z"/></symbol>
  <symbol id="icon-people" xmlns="http://www.w3.org/2000/svg" fill="none" viewBox="0 0 24 25"><path fill="currentColor" d="M14.754 10.5c.966 0 1.75.784 1.75 1.75v4.749a4.501 4.501 0 0 1-9.002 0V12.25c0-.966.783-1.75 1.75-1.75h5.502Zm-7.623 0a2.72 2.72 0 0 0-.62 1.53l-.01.22v4.749c0 .847.192 1.649.534 2.365A4 4 0 0 1 2 15.499V12.25a1.75 1.75 0 0 1 1.606-1.744l.144-.006h3.381Zm9.744 0h3.375c.966 0 1.75.784 1.75 1.75v3.25a4 4 0 0 1-5.03 3.866c.3-.628.484-1.32.525-2.052l.009-.315V12.25a2.73 2.73 0 0 0-.629-1.75ZM12 3.5a3 3 0 1 1 0 6 3 3 0 0 1 0-6Zm6.5 1a2.5 2.5 0 1 1 0 5 2.5 2.5 0 0 1 0-5Zm-13 0a2.5 2.5 0 1 1 0 5 2.5 2.5 0 0 1 0-5Z"/></symbol>
  <symbol id="icon-settings" xmlns="http://www.w3.org/2000/svg" fill="none" viewBox="0 0 24 24"><path fill="currentColor" d="M12.012 2.25c.734.008 1.465.093 2.182.253a.75.75 0 0 1 .582.649l.17 1.527a1.383 1.383 0 0 0 1.927 1.116l1.401-.615a.75.75 0 0 1 .85.174 9.791 9.791 0 0 1 2.204 3.792.75.75 0 0 1-.27.825l-1.243.916a1.38 1.38 0 0 0 0 2.226l1.243.915a.75.75 0 0 1 .272.826 9.797 9.797 0 0 1-2.204 3.792.75.75 0 0 1-.848.175l-1.407-.617a1.379 1.379 0 0 0-1.926 1.114l-.169 1.526a.75.75 0 0 1-.572.647 9.518 9.518 0 0 1-4.406 0 .75.75 0 0 1-.572-.647l-.168-1.524a1.382 1.382 0 0 0-1.926-1.11l-1.406.616a.75.75 0 0 1-.849-.175 9.798 9.798 0 0 1-2.204-3.796.75.75 0 0 1 .272-.826l1.243-.916a1.38 1.38 0 0 0 0-2.226l-1.243-.914a.75.75 0 0 1-.27-.826 9.793 9.793 0 0 1 2.203-3.792.75.75 0 0 1 .85-.174l1.4.615a1.387 1.387 0 0 0 1.93-1.118l.17-1.526a.75.75 0 0 1 .583-.65c.717-.159 1.45-.243 2.201-.252ZM12 9a3 3 0 1 0 0 6 3 3 0 0 0 0-6Z"/></symbol>  
  <symbol id="icon-mail" xmlns="http://www.w3.org/2000/svg" fill="none" viewBox="0 0 24 24"><path fill="currentColor" d="M22 8.608v8.142a3.25 3.25 0 0 1-3.066 3.245L18.75 20H5.25a3.25 3.25 0 0 1-3.245-3.066L2 16.75V8.608l9.652 5.056a.75.75 0 0 0 .696 0L22 8.608ZM5.25 4h13.5a3.25 3.25 0 0 1 3.234 2.924L12 12.154l-9.984-5.23a3.25 3.25 0 0 1 3.048-2.919L5.25 4Z"/></symbol>
  <symbol id="icon-question" xmlns="http://www.w3.org/2000/svg" fill="none" viewBox="0 0 24 24"><path fill="currentColor" d="M12 2c5.523 0 10 4.477 10 10s-4.477 10-10 10a9.96 9.96 0 0 1-4.644-1.142l-4.29 1.117a.85.85 0 0 1-1.037-1.036l1.116-4.289A9.959 9.959 0 0 1 2 12C2 6.477 6.477 2 12 2Zm0 13.5a1 1 0 1 0 0 2 1 1 0 0 0 0-2Zm0-8.75A2.75 2.75 0 0 0 9.25 9.5a.75.75 0 0 0 1.493.102l.014-.23a1.25 1.25 0 0 1 2.493.128c0 .539-.135.805-.645 1.332l-.304.31c-.754.784-1.051 1.347-1.051 2.358a.75.75 0 1 0 1.5 0c0-.539.135-.805.645-1.332l.304-.31c.754-.784 1.051-1.347 1.051-2.358A2.75 2.75 0 0 0 12 6.75Z"/></symbol>
  <symbol id="icon-burger" xmlns="http://www.w3.org/2000/svg" fill="none" viewBox="0 0 16 16"><path fill="currentColor" d="M2 11.333h8a.666.666 0 0 1 .078 1.329l-.078.005H2a.666.666 0 0 1-.078-1.329L2 11.333Zm0-4h12a.667.667 0 0 1 .078 1.329L14 8.667H2a.667.667 0 0 1-.078-1.329L2 7.333Zm0-4h10a.667.667 0 0 1 .078 1.329L12 4.667H2a.667.667 0 0 1-.078-1.329L2 3.333Z"/></symbol>
  <symbol id="icon-right" xmlns="http://www.w3.org/2000/svg" fill="none" viewBox="0 0 17 16"><path fill="currentColor" d="M6.029 13.138a.667.667 0 0 1 0-.943L10.224 8 6.03 3.805a.667.667 0 1 1 .942-.943l4.667 4.667a.667.667 0 0 1 0 .942l-4.667 4.667a.667.667 0 0 1-.942 0Z"/></symbol>
  <symbol id="icon-down" xmlns="http://www.w3.org/2000/svg" fill="none" viewBox="0 0 16 16"><path fill="currentColor" d="m8 10.667-4-4h8l-4 4Z"/></symbol>
  <symbol id="icon-up-down" xmlns="http://www.w3.org/2000/svg" fill="none" viewBox="0 0 8 14"><path fill="currentColor" d="M4 0 0 4h8L4 0ZM4 14l-4-4h8l-4 4Z"/></symbol>
  <symbol id="icon-bell" xmlns="http://www.w3.org/2000/svg" fill="none" viewBox="0 0 16 16"><path fill="currentColor" d="M6.028 12.669h3.944a2 2 0 0 1-3.944 0ZM8 1.335a5 5 0 0 1 5 5v2.667l.945 2.107a.634.634 0 0 1-.577.891H2.635a.634.634 0 0 1-.578-.892L3 9.001V6.327l.003-.167A5 5 0 0 1 8 1.335Z"/></symbol>
  <symbol id="icon-search" xmlns="http://www.w3.org/2000/svg" fill="none" viewBox="0 0 16 16"><path fill="currentColor" d="M6.667 1.667a5 5 0 0 1 3.976 8.032l3.162 3.163a.667.667 0 0 1-.88.998l-.063-.055L9.7 10.643a5 5 0 1 1-3.032-8.976Zm0 1.333a3.667 3.667 0 1 0 0 7.333 3.667 3.667 0 0 0 0-7.333Z"/></symbol>
  <symbol id="icon-close" xmlns="http://www.w3.org/2000/svg" fill="none" viewBox="0 0 16 16"><path fill="currentColor" d="m8 7.058 3.3-3.3.942.943-3.3 3.3 3.3 3.3-.942.942-3.3-3.3-3.3 3.3-.943-.943 3.3-3.3-3.3-3.3.943-.942 3.3 3.3Z"/></symbol>
  <symbol id="icon-edit" xmlns="http://www.w3.org/2000/svg" fill="none" viewBox="0 0 16 16"><path fill="currentColor" d="m9.293 3.333 3.374 3.374-.64.641a4.333 4.333 0 0 0-4.678 4.677l-1.307 1.307a1.5 1.5 0 0 1-.667.387l-3.41.93a.5.5 0 0 1-.613-.614l.93-3.41a1.5 1.5 0 0 1 .386-.667l6.625-6.625Zm4.728-1.353a2.386 2.386 0 0 1 0 3.373L13.374 6 10 2.627l.647-.647a2.386 2.386 0 0 1 3.374 0Zm-4.5 7.336a1.333 1.333 0 0 1-.962 1.665l-.389.096c-.062.399-.06.806.004 1.204l.36.087a1.332 1.332 0 0 1 .967 1.673l-.125.422c.293.257.627.466.99.614l.329-.346a1.333 1.333 0 0 1 1.932 0l.332.35c.361-.146.696-.352.99-.608l-.133-.458a1.333 1.333 0 0 1 .961-1.664l.39-.096c.062-.4.06-.806-.005-1.205l-.36-.087a1.333 1.333 0 0 1-.967-1.673l.125-.42a3.521 3.521 0 0 0-.99-.615l-.328.346a1.334 1.334 0 0 1-1.933 0l-.332-.35a3.514 3.514 0 0 0-.989.608l.132.457Zm2.146 3.35c-.533 0-.966-.447-.966-1 0-.552.433-1 .966-1 .534 0 .967.448.967 1 0 .553-.433 1-.967 1Z"/></symbol>
  <symbol id="icon-sort" xmlns="http://www.w3.org/2000/svg" fill="none" viewBox="0 0 16 16"><path fill="currentColor" d="M5.337 3.335h2v6h-2v2H4.003v-2h-2v-6h2v-2h1.334v2Zm6.666 3.334h2v6h-2v2H10.67v-2h-2v-6h2v-2h1.333v2Z"/></symbol>
  <symbol id="icon-camera" xmlns="http://www.w3.org/2000/svg" fill="none" viewBox="0 0 16 16"><path fill="currentColor" d="M9.283 1.669a1.5 1.5 0 0 1 1.294.74l.542.924h1.38A2.167 2.167 0 0 1 14.668 5.5v6.333A2.168 2.168 0 0 1 12.5 14h-9a2.166 2.166 0 0 1-2.167-2.167V5.5A2.167 2.167 0 0 1 3.5 3.333h1.387l.583-.949a1.5 1.5 0 0 1 1.278-.715h2.535ZM8 5.333a3 3 0 1 0 0 6 3 3 0 0 0 0-6Zm0 1a2 2 0 1 1 0 4 2 2 0 0 1 0-4Z"/></symbol>
  <symbol id="icon-plus" xmlns="http://www.w3.org/2000/svg" fill="none" viewBox="0 0 16 16"><path fill="currentColor" d="M11.667 6.667c0 1.14-.382 2.191-1.024 3.032l3.162 3.163a.667.667 0 0 1-.88.998l-.063-.055L9.7 10.643a5 5 0 1 1 1.968-3.976Zm-5-3A.667.667 0 0 0 6 4.333V6H4.333a.667.667 0 1 0 0 1.333H6V9a.667.667 0 0 0 1.333 0V7.333H9A.667.667 0 0 0 9 6H7.333V4.333a.667.667 0 0 0-.666-.666Z"/></symbol>
  <symbol id="icon-minus" xmlns="http://www.w3.org/2000/svg" fill="none" viewBox="0 0 16 16"><path fill="currentColor" d="M11.667 6.667a5 5 0 1 0-1.968 3.976l3.163 3.162.063.055a.667.667 0 0 0 .88-.998l-3.162-3.163a4.979 4.979 0 0 0 1.024-3.032ZM9 6a.667.667 0 1 1 0 1.333H4.333a.667.667 0 0 1 0-1.333H9Z"/></symbol>
  <symbol id="icon-chain" xmlns="http://www.w3.org/2000/svg" fill="none" viewBox="0 0 16 16"><path fill="currentColor" d="M10.667 4a2 2 0 1 1 1.682 1.975l-1.358 2.238a2 2 0 0 1-3.166 2.434L5.33 11.893a2 2 0 1 1-.308-.964l2.354-1.176a2 2 0 0 1 2.85-2.209l1.199-1.975A1.996 1.996 0 0 1 10.666 4Z"/></symbol>
  <symbol id="icon-diagram" xmlns="http://www.w3.org/2000/svg" fill="none" viewBox="0 0 16 16"><path fill="currentColor" d="M11.333 2.667a.667.667 0 0 1 0-1.334H14a.667.667 0 0 1 .667.667v2.667a.667.667 0 0 1-1.334 0V3.609L9.471 7.471a.667.667 0 0 1-.942 0L6.667 5.61 3.138 9.138a.667.667 0 0 1-.943-.943l4-4a.667.667 0 0 1 .943 0L9 6.057l3.39-3.39h-1.057Zm-8 9.333v2A.666.666 0 1 1 2 14v-2a.667.667 0 0 1 1.333 0Zm3.334-2.667a.667.667 0 1 0-1.334 0V14a.666.666 0 1 0 1.334 0V9.333ZM9.333 10a.667.667 0 0 1 .667.667V14a.666.666 0 1 1-1.333 0v-3.333A.667.667 0 0 1 9.333 10Zm4-2.667a.667.667 0 1 0-1.333 0V14a.666.666 0 1 0 1.333 0V7.333Z"/></symbol>
  <symbol id="icon-pencil" xmlns="http://www.w3.org/2000/svg" fill="none" viewBox="0 0 16 16"><path fill="currentColor" d="m9.293 3.333 3.374 3.374-6.626 6.626a1.5 1.5 0 0 1-.666.387l-3.41.93a.5.5 0 0 1-.614-.614l.93-3.41a1.5 1.5 0 0 1 .387-.667l6.624-6.626h.001ZM14.02 1.98a2.385 2.385 0 0 1 0 3.373L13.373 6 10 2.627l.647-.647a2.385 2.385 0 0 1 3.373 0Z"/></symbol>
  <symbol id="icon-text" xmlns="http://www.w3.org/2000/svg" fill="none" viewBox="0 0 16 16"><path fill="currentColor" d="M3.167 3.333a.667.667 0 0 1 .666-.666h8.334a.667.667 0 0 1 .666.666v1.334a.667.667 0 1 1-1.333 0V4H8.667v8h.666a.667.667 0 1 1 0 1.333H6.667a.666.666 0 1 1 0-1.333h.666V4H4.5v.667a.667.667 0 0 1-1.333 0V3.333Z"/></symbol>
</svg>
